<svg height="512" viewBox="0 0 64 64" width="512" xmlns="http://www.w3.org/2000/svg"><g fill="#57a4ff"><path d="m41.9 15.1a14 14 0 0 0 -23.9 9.9v9h28v-9a13.994 13.994 0 0 0 -4.1-9.9zm.1 17.9h-20v-8a10 10 0 0 1 20 0z"/><path d="m13 34h38v5h-38z"/><path d="m41.9 15.1a14 14 0 0 0 -23.9 9.9v9h28v-9a13.994 13.994 0 0 0 -4.1-9.9zm.1 17.9h-20v-8a10 10 0 0 1 20 0z"/><path d="m29 2h6v3h-6z"/></g><path d="m51 33h-1v-24a5.006 5.006 0 0 0 -5-5h-9v-2a1 1 0 0 0 -1-1h-6a1 1 0 0 0 -1 1v2h-9a5.006 5.006 0 0 0 -5 5v24h-1a1 1 0 0 0 -1 1v5a1 1 0 0 0 1 1h4.06a15.044 15.044 0 0 0 5.6 10.7l-.66 11.241a1 1 0 0 0 1 1.059h18a1 1 0 0 0 1-1.059l-.663-11.241a15.04 15.04 0 0 0 5.603-10.7h4.06a1 1 0 0 0 1-1v-5a1 1 0 0 0 -1-1zm-21-30h4v1h-4zm-14 6a3 3 0 0 1 3-3h26a3 3 0 0 1 3 3v24h-1v-8a15 15 0 0 0 -30 0v8h-1zm27 24v-8a11 11 0 0 0 -22 0v8h-2v-8a13 13 0 1 1 26 0v8zm-2 0h-18v-8a9 9 0 0 1 18 0zm-16.939 28 .527-8.974a14.9 14.9 0 0 0 14.824 0l.527 8.974zm15.653-11.543a12.979 12.979 0 0 1 -20.656-9.457h25.884a12.864 12.864 0 0 1 -5.228 9.457zm10.286-11.457h-36v-3h36z" fill="#004fac"/><path d="m19 9h6a1 1 0 0 0 0-2h-6a1 1 0 0 0 0 2z" fill="#004fac"/><path d="m28 9h1a1 1 0 0 0 0-2h-1a1 1 0 0 0 0 2z" fill="#004fac"/></svg>